<svg xmlns="http://www.w3.org/2000/svg" viewBox="0 0 1138.44521 799"><defs><style>.a{fill:#fff;}.b,.d{fill:#808285;}.c{fill:none;}.c,.d{stroke:#808285;stroke-miterlimit:10;stroke-width:5px;}</style></defs><title>processHomePage</title><path class="a" d="M1160.78,757.95V787.8a30.14324,30.14324,0,0,1-30.15,30.14H791v-.58l-.08-57.45Z" transform="translate(-27.28 -21.44)"/><polygon class="a" points="1133.5 667.74 1133.5 736.51 763.64 738.47 763.54 669.7 1132.49 667.74 1133.5 667.74"/><polygon class="a" points="1133.5 605.27 1133.5 667.74 1132.49 667.74 763.54 669.7 763.46 607.23 1133.5 605.27"/><polygon class="a" points="1133.5 536.49 1133.5 605.27 763.46 607.23 763.36 538.45 1133.5 536.49"/><polygon class="a" points="1133.5 473.98 1133.5 536.49 763.36 538.45 763.27 475.94 1133.5 473.98"/><polygon class="a" points="1133.5 405.21 1133.5 473.98 763.27 475.94 763.18 407.17 1133.49 405.21 1133.5 405.21"/><polygon class="a" points="1133.5 342.71 1133.5 405.21 1133.49 405.21 763.18 407.17 763.09 344.68 1133.5 342.71"/><polygon class="a" points="1133.5 273.94 1133.5 342.71 763.09 344.68 763 275.89 1131.49 273.94 1133.5 273.94"/><polygon class="a" points="1133.5 205.82 1133.5 273.94 1131.49 273.94 763 275.89 762.9 207.79 1133.5 205.82"/><polygon class="a" points="1133.5 137.05 1133.5 205.82 762.9 207.79 762.81 139.02 1133.48 137.05 1133.5 137.05"/><polygon class="a" points="1133.5 66.56 1133.5 137.05 1133.48 137.05 762.81 139.02 762.71 70.18 762.7 68.53 1133.5 66.56"/><path class="b" d="M1160.78,54.08V88l-370.8,1.97L367.99,92.21,29.78,94V54.08A30.1411,30.1411,0,0,1,59.92,23.94H1130.63A30.14964,30.14964,0,0,1,1160.78,54.08Z" transform="translate(-27.28 -21.44)"/><polygon class="a" points="763.72 795.92 763.72 796.5 341.72 796.5 341.64 740.71 763.64 738.47 763.72 795.92"/><polygon class="a" points="763.54 669.7 763.64 738.47 341.64 740.71 341.55 671.94 763.54 669.7"/><polygon class="a" points="763.46 607.23 763.54 669.7 341.55 671.94 341.46 609.47 763.46 607.23"/><polygon class="a" points="763.36 538.45 763.46 607.23 341.46 609.47 341.36 540.69 763.36 538.45"/><polygon class="a" points="763.27 475.94 763.36 538.45 341.36 540.69 341.28 478.18 763.27 475.94"/><polygon class="a" points="763.18 407.17 763.27 475.94 341.28 478.18 341.18 409.41 763.18 407.17"/><polygon class="a" points="763.09 344.68 763.18 407.17 341.18 409.41 341.09 346.91 763.09 344.68"/><polygon class="a" points="763 275.89 763.09 344.68 341.09 346.91 341 278.13 763 275.89"/><polygon class="a" points="762.9 207.79 763 275.89 341 278.13 340.9 210.03 762.9 207.79"/><polygon class="a" points="762.81 139.02 762.9 207.79 340.9 210.03 340.81 141.26 762.81 139.02"/><polygon class="a" points="762.71 70.18 762.81 139.02 340.81 141.26 340.71 70.77 762.7 68.53 762.71 70.18"/><path class="a" d="M368.92,762.15l.08,55.79H59.92A30.1347,30.1347,0,0,1,29.78,787.8V763.94h1Z" transform="translate(-27.28 -21.44)"/><polygon class="a" points="341.55 671.94 341.64 740.71 3.5 742.5 2.5 742.5 2.5 673.73 341.55 671.94"/><polygon class="a" points="341.46 609.47 341.55 671.94 2.5 673.73 2.5 542.47 5.42 542.47 341.36 540.69 341.46 609.47"/><polygon class="a" points="341.28 478.18 341.36 540.69 5.42 542.47 2.5 542.47 2.5 479.97 4.5 479.97 341.28 478.18"/><polygon class="a" points="341.18 409.41 341.28 478.18 4.5 479.97 2.5 479.97 2.5 411.21 341.18 409.41"/><polygon class="a" points="341.09 346.91 341.18 409.41 2.5 411.21 2.5 348.71 341.09 346.91"/><polygon class="a" points="341 278.13 341.09 346.91 2.5 348.71 2.5 279.93 341 278.13"/><polygon class="a" points="340.9 210.03 341 278.13 2.5 279.93 2.5 211.81 4.49 211.81 340.9 210.03"/><polygon class="a" points="340.81 141.26 340.9 210.03 4.49 211.81 2.5 211.81 2.5 143.05 340.81 141.26"/><polygon class="a" points="340.71 70.77 340.81 141.26 2.5 143.05 2.5 72.56 340.71 70.77"/><path class="c" d="M1160.78,757.95V787.8a30.14324,30.14324,0,0,1-30.15,30.14H59.92A30.1347,30.1347,0,0,1,29.78,787.8V54.08A30.1411,30.1411,0,0,1,59.92,23.94H1130.63a30.14964,30.14964,0,0,1,30.15,30.14V757.95Z" transform="translate(-27.28 -21.44)"/><polyline class="c" points="2.5 72.56 340.71 70.77 762.7 68.53 1133.5 66.56"/><polyline class="c" points="340.71 70.77 340.81 141.26 340.9 210.03 341 278.13 341.09 346.91 341.18 409.41 341.28 478.18 341.36 540.69 341.46 609.47 341.55 671.94 341.64 740.71 341.72 796.5"/><polyline class="c" points="762.71 70.18 762.81 139.02 762.9 207.79 763 275.89 763.09 344.68 763.18 407.17 763.27 475.94 763.36 538.45 763.46 607.23 763.54 669.7 763.64 738.47 763.72 795.92"/><polyline class="c" points="2.48 143.05 2.5 143.05 340.81 141.26 762.81 139.02 1133.48 137.05"/><polyline class="c" points="4.49 211.81 340.9 210.03 762.9 207.79 1133.5 205.82 1135.49 205.81"/><polyline class="c" points="0.49 279.94 2.5 279.93 341 278.13 763 275.89 1131.49 273.94"/><polyline class="c" points="2.5 348.71 341.09 346.91 763.09 344.68 1133.5 342.71"/><polyline class="c" points="2.49 411.21 2.5 411.21 341.18 409.41 763.18 407.17 1133.49 405.21"/><polyline class="c" points="4.5 479.97 341.28 478.18 763.27 475.94 1133.5 473.98 1135.5 473.97"/><polyline class="c" points="5.42 542.47 341.36 540.69 763.36 538.45 1133.5 536.49 1136.42 536.47"/><polyline class="c" points="7.43 611.24 341.46 609.47 763.46 607.23 1133.5 605.27 1138.43 605.24"/><polyline class="c" points="1.49 673.74 2.5 673.73 341.55 671.94 763.54 669.7 1132.49 667.74"/><polyline class="c" points="3.5 742.5 341.64 740.71 763.64 738.47 1133.5 736.51 1134.5 736.5"/><rect class="d" x="23.72" y="95.56" width="287" height="18" rx="8.99999" ry="8.99999"/><rect class="d" x="377.72" y="165.56" width="355" height="17" rx="8.49999" ry="8.49999"/><rect class="d" x="794.72" y="95.56" width="312" height="18" rx="8.99999" ry="8.99999"/><rect class="d" x="26.495" y="235.56" width="287" height="18" rx="8.99999" ry="8.99999"/><rect class="d" x="380.495" y="305.56" width="355" height="17" rx="8.49999" ry="8.49999"/><rect class="d" x="797.495" y="235.56" width="312" height="18" rx="8.99999" ry="8.99999"/><rect class="d" x="24.10476" y="366.06" width="287" height="18" rx="8.99999" ry="8.99999"/><rect class="d" x="378.10476" y="436.06" width="355" height="17" rx="8.49999" ry="8.49999"/><rect class="d" x="795.10476" y="366.06" width="312" height="18" rx="8.99999" ry="8.99999"/><rect class="d" x="26.495" y="498.11946" width="287" height="18" rx="8.99999" ry="8.99999"/><rect class="d" x="380.495" y="568.11946" width="355" height="17" rx="8.49999" ry="8.49999"/><rect class="d" x="797.495" y="498.11946" width="312" height="18" rx="8.99999" ry="8.99999"/><rect class="d" x="14.10476" y="627.2966" width="287" height="18" rx="8.99999" ry="8.99999"/><rect class="d" x="368.10476" y="697.2966" width="355" height="17" rx="8.49999" ry="8.49999"/><rect class="d" x="785.10476" y="627.2966" width="312" height="18" rx="8.99999" ry="8.99999"/></svg>