<svg xmlns="http://www.w3.org/2000/svg" viewBox="0 0 898.725 548.03557"><defs><style>.a{fill:#9d1f60;}.b{fill:#3bb54a;}.c{fill:#f79420;}.d{fill:#fff;}.e,.g{fill:none;}.e{stroke:#fff;}.e,.h{stroke-miterlimit:10;}.f{fill:#1b75bc;}.h{fill:#f15a29;stroke:#f15a29;stroke-width:5px;}.i{fill:#be1e2d;}</style></defs><title>visualiseHomePage</title><path class="a" d="M334.56706,436.85718c0-122.38245,99.80535-221.59422,222.91085-221.59422a224.72587,224.72587,0,0,1,52.31525,6.1369l-.2752,1.149L591.1714,292.5989a150.218,150.218,0,0,0-33.69348-3.80251c-82.25686,0-148.93747,66.284-148.93747,148.06079,0,81.76764,66.68062,148.05167,148.93747,148.05167a149.03142,149.03142,0,0,0,128.26089-72.7401l.10091.06383,67.89149,29.77265A223.01738,223.01738,0,0,1,557.47792,658.43316C434.37241,658.43316,334.56706,559.23051,334.56706,436.85718Z" transform="translate(-116.9125 -146.92721)"/><path class="b" d="M706.42456,436.85718a146.96391,146.96391,0,0,0-37.12429-97.79836v-.00912l45.97651-58.70637A220.68024,220.68024,0,0,1,753.7312,542.00524l-67.89149-29.77265-.10091-.06383A146.65236,146.65236,0,0,0,706.42456,436.85718Z" transform="translate(-116.9125 -146.92721)"/><path class="c" d="M669.30027,339.0497a149.00273,149.00273,0,0,0-78.12888-46.4508L609.518,222.54883l.2752-1.149a222.85133,222.85133,0,0,1,105.48362,58.94346Z" transform="translate(-116.9125 -146.92721)"/><path class="d" d="M557.47792,584.90885c-82.25686,0-148.93747-66.284-148.93747-148.05167,0-81.77676,66.68062-148.06079,148.93747-148.06079A148.98935,148.98935,0,0,1,669.30027,339.0497v.00912A147.40417,147.40417,0,0,1,685.7388,512.16876,149.03142,149.03142,0,0,1,557.47792,584.90885Z" transform="translate(-116.9125 -146.92721)"/><path class="e" d="M669.30027,339.05882A147.40417,147.40417,0,0,1,685.7388,512.16876" transform="translate(-116.9125 -146.92721)"/><polyline class="e" points="552.369 192.15 552.388 192.132 552.388 192.122 598.364 133.416 598.584 133.143"/><polyline class="e" points="568.927 365.305 636.819 395.078 637.58 395.415"/><polyline class="e" points="474.259 145.69 474.259 145.672 492.605 75.622"/><path class="d" d="M602.28587,220.55723,583.9393,290.62148c-2.4473,9.34605,12.017,13.33309,14.46419,3.98759l18.34657-70.06425c2.4473-9.34605-12.017-13.33309-14.46419-3.98759Z" transform="translate(-116.9125 -146.92721)"/><path class="d" d="M710.19417,274.77074,663.9761,333.776c-2.51612,3.21226-3.07481,7.46372,0,10.6066,2.5701,2.627,8.11335,3.18306,10.6066,0l46.21807-59.0053c2.51612-3.21226,3.07481-7.46372,0-10.6066-2.5701-2.627-8.11335-3.18306-10.6066,0Z" transform="translate(-116.9125 -146.92721)"/><path class="d" d="M753.94771,533.96323l-64.32293-28.20586c-3.73658-1.6385-8.01105-1.06593-10.26142,2.69064-1.89579,3.16466-1.01221,8.63771,2.69064,10.26142l64.32293,28.20586c3.73658,1.6385,8.01105,1.06593,10.26142-2.69064,1.89579-3.16466,1.01221-8.63771-2.69064-10.26142Z" transform="translate(-116.9125 -146.92721)"/><rect class="f" x="83.4769" y="131.30969" width="113.74875" height="15.50184" rx="5.81281" ry="5.81281"/><rect class="f" x="82.55958" y="155.35449" width="113.74875" height="15.50184" rx="5.81281" ry="5.81281"/><rect class="g" width="761.38275" height="548.03557"/><rect class="f" x="696.04518" y="202.67982" width="49.33654" height="235.29954"/><rect class="f" x="774.71695" y="131.30969" width="49.33654" height="306.66967"/><rect class="f" x="849.38846" y="254.37438" width="49.33654" height="183.60498"/><line class="h" x1="720.71345" y1="192.01246" x2="799.38522" y2="102.67333"/><line class="h" x1="874.05673" y1="238.68216" x2="799.38522" y2="102.67333"/><circle class="i" cx="800.70968" cy="103.33109" r="7.32485"/><circle class="i" cx="720.71345" cy="192.01246" r="7.32485"/><circle class="i" cx="874.05673" cy="238.68216" r="7.32485"/></svg>